<svg xmlns="http://www.w3.org/2000/svg" width="13" height="19" viewBox="0 0 13.00 19.00" fill="#E53619"><path fill-rule="nonzero" d="M12.37 4.83 C11.96 4.43 11.44 4.22 10.83 4.22 L9.75 4.22 L9.75 2.11 C9.75 1.52 9.53 1.01 9.12 0.61 C8.71 0.21 8.19 0.00 7.58 0.00 L5.42 0.00 C4.81 0.00 4.29 0.21 3.88 0.61 C3.47 1.01 3.25 1.52 3.25 2.11 L3.25 4.22 L2.17 4.22 C1.56 4.22 1.04 4.43 0.63 4.83 C0.22 5.24 0.00 5.74 0.00 6.33 L0.00 14.78 C0.00 15.37 0.22 15.88 0.63 16.28 C1.04 16.68 1.56 16.89 2.17 16.89 L2.17 17.42 C2.17 17.88 2.32 18.26 2.62 18.56 C2.93 18.85 3.32 19.00 3.79 19.00 C4.27 19.00 4.66 18.85 4.96 18.56 C5.27 18.26 5.42 17.88 5.42 17.42 L5.42 16.89 L7.58 16.89 L7.58 17.42 C7.58 17.88 7.74 18.26 8.04 18.56 C8.34 18.85 8.73 19.00 9.21 19.00 C9.69 19.00 10.07 18.85 10.38 18.56 C10.68 18.26 10.83 17.88 10.83 17.42 L10.83 16.89 C11.44 16.89 11.96 16.68 12.37 16.28 C12.78 15.88 13.00 15.37 13.00 14.78 L13.00 6.33 C13.00 5.74 12.78 5.24 12.37 4.83 Z M7.58 4.22 L5.42 4.22 L5.42 2.11 L7.58 2.11 L7.58 4.22 Z"/></svg>
