<svg preserveAspectRatio="none" overflow="visible" style="display: block;" width="14.4" height="11.4" viewBox="0 0 14.4 11.4" fill="none" xmlns="http://www.w3.org/2000/svg">
<path id="Vector" d="M13.6395 0.100391C13.8174 0.100391 13.9862 0.177284 14.1092 0.311328C14.2319 0.445259 14.2996 0.62536 14.2996 0.811328C14.2996 0.997323 14.2319 1.17738 14.1092 1.31133L5.1502 11.0887C5.08937 11.1551 5.01601 11.2084 4.93535 11.2449C4.85485 11.2813 4.76817 11.2996 4.68047 11.2996C4.59256 11.2996 4.50528 11.2814 4.42461 11.2449C4.34389 11.2084 4.27061 11.1551 4.20977 11.0887L0.29082 6.81133C0.168143 6.67746 0.100471 6.4972 0.100391 6.31133C0.100391 6.12533 0.16807 5.94528 0.29082 5.81133C0.413831 5.67715 0.582514 5.59941 0.760547 5.59941C0.938527 5.59949 1.10732 5.67715 1.23027 5.81133L4.67949 9.57598L13.1697 0.311328C13.2927 0.17719 13.4615 0.100466 13.6395 0.100391Z" fill="#E53619" stroke="#E53619" stroke-width="0.2"/>
</svg>
